<svg id="Layer_1" data-name="Layer 1" xmlns="http://www.w3.org/2000/svg" viewBox="0 0 1105.78 474.86"><defs><style>.cls-1{fill:#d2bbb9;}.cls-1,.cls-10,.cls-11,.cls-12,.cls-2,.cls-3,.cls-4,.cls-5{stroke:#42210b;stroke-miterlimit:10;stroke-width:0.05px;}.cls-2{fill:#8c615d;}.cls-3{fill:none;}.cls-4{fill:#ccafa2;}.cls-5{fill:#b18b83;}.cls-6{fill:#875f52;}.cls-7{fill:#929a71;}.cls-8{fill:#a1af57;}.cls-9{fill:#937c4f;}.cls-10{fill:#635748;}.cls-11{fill:#8e6556;}.cls-12{fill:#a28675;}</style></defs><polygon class="cls-1" points="735.57 246.26 605.84 252.91 559.28 316.11 692.33 316.11 735.57 246.26"/><polygon class="cls-2" points="569.25 316.11 569.25 366.01 679.02 369.33 679.02 316.11 569.25 316.11"/><path class="cls-3" d="M814.09,472.31" transform="translate(-84 -217.2)"/><polygon class="cls-4" points="772.16 316.11 728.92 256.24 692.33 316.11 679.02 316.11 679.02 369.33 772.16 362.68 772.16 316.11"/><polygon class="cls-5" points="735.57 246.26 728.92 256.24 772.16 316.11 785.46 312.79 735.57 246.26"/><path class="cls-6" d="M368.91,243.58a296.38,296.38,0,0,1-89.69,73.87l-26.38,26.38,10.55,26.38c-31.66,31.66-37.87,36.52-42.21,47.49-6.52,16.49-.05,20.17-5.28,26.38-4.77,5.67-6.82,5.83-10.55,10.55-9.75,12.34,1.75,25,0,58-.37,7-.86,5.94-3.54,33.7-.95,9.84-1.42,14.76-1.73,19.06-1.58,21.83-2.47,34.22,0,47.49,1.58,8.52,5.37,21.81,15.82,36.93l-31.65,5.28-21.11,26.38-10.55,5.27-21.1,5.28V681.51l-21.11-5.28V665.68l-5.28-5.28V644.58L94.55,634c7-5,16.47-13.49,21.11-26.38,5.2-14.45.82-24.57,0-42.21-1.11-23.77,5.77-28.85,10.55-58,1.69-10.31,6.58-41.62,0-73.86C123,417.79,114,386.78,84,354.38l31.66-15.82a303.33,303.33,0,0,1,15.83,31.65c14.78,34.44,14.9,52.39,21.1,52.77,7.79.46,21.77-27,15.83-52.77C162,342.53,135.65,329.92,131.49,328l5.27-21.1a87.08,87.08,0,0,1,10.55,5.28C170.79,326,173,342.1,184.25,343.83c6.92,1.07,13.78-3.83,36.93-31.65,15-18.08,27.36-34.31,36.93-47.49l15.83,10.55-26.38,21.11a153.42,153.42,0,0,0,31.66-10.56c15.18-7,26.15-15.31,47.48-31.65,10.5-8,19.38-15.26,26.39-21.11Z" transform="translate(-84 -217.2)"/><polygon class="cls-7" points="200.5 110.8 174.11 94.97 174.11 110.8 163.56 105.52 163.56 110.8 147.73 116.08 153.01 121.35 137.18 121.35 137.18 131.91 131.91 137.18 147.73 147.73 174.11 147.73 184.67 147.73 179.39 163.56 174.11 179.39 174.11 189.94 200.5 184.67 216.32 168.84 226.88 158.29 247.98 174.11 263.81 184.67 279.64 195.22 284.91 174.11 274.36 147.73 258.53 126.63 279.64 131.91 300.74 126.63 311.3 153.01 332.4 142.46 342.95 126.63 332.4 100.25 332.4 79.14 316.57 58.04 290.19 79.14 269.09 63.31 242.71 89.69 216.32 94.97 200.5 110.8"/><polygon class="cls-8" points="342.95 100.25 358.78 100.25 369.33 126.63 385.16 126.63 406.27 110.8 411.54 126.63 411.54 158.29 427.37 174.11 448.48 158.29 464.31 137.18 480.13 116.08 495.96 110.8 501.24 126.63 490.69 153.01 501.24 163.56 522.34 174.11 527.62 153.01 517.07 137.18 532.89 121.35 548.72 110.8 559.28 116.08 575.11 137.18 590.93 121.35 596.21 100.25 596.21 89.69 606.76 73.87 617.31 89.69 627.87 79.14 648.97 68.59 664.8 68.59 670.08 79.14 685.9 89.69 696.46 94.97 701.73 84.42 701.73 63.31 707.01 52.76 717.56 47.49 728.11 58.04 743.94 73.87 765.05 73.87 786.15 63.31 791.43 42.21 717.56 31.66 664.8 26.38 585.66 10.55 501.24 5.28 448.48 5.28 379.89 0 327.12 0 284.91 0 290.19 21.11 321.85 47.49 316.57 79.14 342.95 100.25"/><polygon class="cls-7" points="633.14 126.63 664.8 110.8 691.18 110.8 707.01 121.35 728.11 116.08 743.94 105.52 770.32 105.52 791.43 121.35 743.94 137.18 749.22 189.94 712.29 168.84 664.8 205.77 654.25 163.56 643.7 147.73 633.14 126.63"/><polygon class="cls-9" points="633.14 79.14 643.7 105.52 650.55 117.92 683.27 110.8 664.8 79.14 659.52 58.04 633.14 63.31 633.14 79.14"/><polygon class="cls-9" points="585.66 36.93 606.76 36.93 606.76 63.31 601.49 68.59 596.21 63.31 590.93 52.76 585.66 42.21 585.66 36.93"/><path class="cls-3" d="M872.79,563.25" transform="translate(-84 -217.2)"/><path class="cls-3" d="M1002.06,556.2" transform="translate(-84 -217.2)"/><rect class="cls-10" x="808.58" y="337.68" width="2.64" height="26.38"/><rect class="cls-10" x="825.72" y="337.68" width="2.64" height="26.38"/><rect class="cls-10" x="842.87" y="337.68" width="2.64" height="26.38"/><rect class="cls-10" x="860.02" y="337.68" width="2.64" height="26.38"/><rect class="cls-10" x="877.17" y="337.68" width="2.64" height="26.38"/><rect class="cls-10" x="894.31" y="337.68" width="2.64" height="26.38"/><rect class="cls-10" x="911.46" y="337.68" width="2.64" height="26.38"/><rect class="cls-10" x="928.61" y="337.68" width="2.64" height="26.38"/><rect class="cls-10" x="945.76" y="337.68" width="2.64" height="26.38"/><rect class="cls-10" x="801.98" y="342.95" width="150.37" height="2.64"/><rect class="cls-10" x="801.98" y="353.5" width="150.37" height="2.64"/><path class="cls-3" d="M1132.2,581.26" transform="translate(-84 -217.2)"/><path class="cls-3" d="M1147.15,586.54" transform="translate(-84 -217.2)"/><path class="cls-3" d="M1162.1,586.54" transform="translate(-84 -217.2)"/><path class="cls-3" d="M1177.05,591.81" transform="translate(-84 -217.2)"/><path class="cls-3" d="M1192,591.81" transform="translate(-84 -217.2)"/><rect class="cls-10" x="1014.35" y="342.95" width="2.64" height="26.38"/><rect class="cls-10" x="1031.5" y="344.54" width="2.64" height="26.38"/><rect class="cls-10" x="1048.64" y="346.12" width="2.64" height="26.38"/><rect class="cls-10" x="1065.79" y="347.7" width="2.64" height="26.38"/><rect class="cls-10" x="1082.94" y="349.28" width="2.64" height="26.38"/><rect class="cls-10" x="1100.09" y="350.87" width="2.64" height="26.38"/><rect class="cls-10" x="1139.7" y="523.24" width="2.64" height="97.61" transform="translate(387.7 1441.66) rotate(-85)"/><rect class="cls-10" x="1138.78" y="533.76" width="2.64" height="97.61" transform="translate(376.39 1450.34) rotate(-85)"/><path class="cls-3" d="M481.32,628" transform="translate(-84 -217.2)"/><polygon class="cls-2" points="221.31 327.38 218.96 405.56 397.32 405.56 397.32 292.64 350.39 327.38 221.31 327.38"/><path class="cls-3" d="M550.81,428.25" transform="translate(-84 -217.2)"/><polygon class="cls-4" points="458.13 223.14 510.25 292.64 510.25 396.87 397.32 405.56 397.32 292.64 406.01 292.64 458.13 223.14"/><polygon class="cls-5" points="466.81 211.05 527.62 297.91 510.25 297.91 457.69 224.08 466.81 211.05"/><path class="cls-3" d="M267.42,549.86" transform="translate(-84 -217.2)"/><path class="cls-3" d="M316.28,549.86" transform="translate(-84 -217.2)"/><path class="cls-11" d="M260.75,636.66" transform="translate(-84 -217.2)"/><rect class="cls-10" x="175.43" y="332.4" width="2.64" height="84.42"/><rect class="cls-10" x="231.71" y="332.4" width="2.64" height="84.42"/><rect class="cls-10" x="287.99" y="332.4" width="2.64" height="84.42"/><rect class="cls-10" x="344.27" y="332.4" width="2.64" height="84.42"/><polygon class="cls-12" points="171.48 332.66 223.59 297.91 397.32 297.91 353.89 332.66 171.48 332.66"/><polygon class="cls-1" points="223.59 297.91 301.77 211.05 466.81 211.05 406.01 297.91 223.59 297.91"/></svg>